<mxfile host="app.diagrams.net" modified="2022-07-04T16:44:13.053Z" agent="5.0 (Macintosh; Intel Mac OS X 10_15_7) AppleWebKit/537.36 (KHTML, like Gecko) Chrome/103.0.0.0 Safari/537.36" etag="NEmqanMq8POS70f7MI5n" version="20.0.4" type="github">
  <diagram id="wFE0QG_FPsp0jaGvCLVb" name="Page-1">
    <mxGraphModel dx="788" dy="1564" grid="1" gridSize="10" guides="1" tooltips="1" connect="1" arrows="1" fold="1" page="1" pageScale="1" pageWidth="850" pageHeight="1100" math="0" shadow="0">
      <root>
        <mxCell id="0" />
        <mxCell id="1" parent="0" />
        <mxCell id="vQfDU65cQJJvmLIyPzIB-1" value="Avatar Unity SDK" style="swimlane;" vertex="1" parent="1">
          <mxGeometry x="860" y="-40" width="290" height="310" as="geometry" />
        </mxCell>
        <mxCell id="vQfDU65cQJJvmLIyPzIB-2" value="在线鉴权" style="rounded=1;whiteSpace=wrap;html=1;" vertex="1" parent="vQfDU65cQJJvmLIyPzIB-1">
          <mxGeometry x="40" y="50" width="120" height="60" as="geometry" />
        </mxCell>
        <mxCell id="vQfDU65cQJJvmLIyPzIB-3" value="拍照识别" style="rounded=1;whiteSpace=wrap;html=1;" vertex="1" parent="vQfDU65cQJJvmLIyPzIB-1">
          <mxGeometry x="40" y="150" width="120" height="60" as="geometry" />
        </mxCell>
        <mxCell id="vQfDU65cQJJvmLIyPzIB-4" value="表情随动" style="rounded=1;whiteSpace=wrap;html=1;" vertex="1" parent="vQfDU65cQJJvmLIyPzIB-1">
          <mxGeometry x="200" y="150" width="120" height="60" as="geometry" />
        </mxCell>
        <mxCell id="vQfDU65cQJJvmLIyPzIB-9" value="AI能力" style="swimlane;horizontal=0;" vertex="1" parent="vQfDU65cQJJvmLIyPzIB-1">
          <mxGeometry y="130" width="480" height="120" as="geometry" />
        </mxCell>
        <mxCell id="vQfDU65cQJJvmLIyPzIB-10" value="捏脸" style="rounded=1;whiteSpace=wrap;html=1;" vertex="1" parent="vQfDU65cQJJvmLIyPzIB-1">
          <mxGeometry x="40" y="270" width="120" height="60" as="geometry" />
        </mxCell>
        <mxCell id="vQfDU65cQJJvmLIyPzIB-11" value="换装" style="rounded=1;whiteSpace=wrap;html=1;" vertex="1" parent="vQfDU65cQJJvmLIyPzIB-1">
          <mxGeometry x="205" y="270" width="120" height="60" as="geometry" />
        </mxCell>
        <mxCell id="vQfDU65cQJJvmLIyPzIB-19" value="Avatar 能力" style="swimlane;horizontal=0;" vertex="1" parent="vQfDU65cQJJvmLIyPzIB-1">
          <mxGeometry y="250" width="480" height="200" as="geometry" />
        </mxCell>
        <mxCell id="vQfDU65cQJJvmLIyPzIB-20" value="美妆" style="rounded=1;whiteSpace=wrap;html=1;" vertex="1" parent="vQfDU65cQJJvmLIyPzIB-19">
          <mxGeometry x="40" y="110" width="120" height="60" as="geometry" />
        </mxCell>
        <mxCell id="vQfDU65cQJJvmLIyPzIB-22" value="动画" style="rounded=1;whiteSpace=wrap;html=1;" vertex="1" parent="vQfDU65cQJJvmLIyPzIB-19">
          <mxGeometry x="205" y="110" width="120" height="60" as="geometry" />
        </mxCell>
        <mxCell id="vQfDU65cQJJvmLIyPzIB-27" value="" style="edgeStyle=orthogonalEdgeStyle;rounded=0;orthogonalLoop=1;jettySize=auto;html=1;" edge="1" parent="1" source="vQfDU65cQJJvmLIyPzIB-24" target="vQfDU65cQJJvmLIyPzIB-26">
          <mxGeometry relative="1" as="geometry" />
        </mxCell>
        <mxCell id="vQfDU65cQJJvmLIyPzIB-24" value="鉴权开始" style="rounded=1;whiteSpace=wrap;html=1;" vertex="1" parent="1">
          <mxGeometry x="70" y="330" width="120" height="60" as="geometry" />
        </mxCell>
        <mxCell id="vQfDU65cQJJvmLIyPzIB-29" style="edgeStyle=orthogonalEdgeStyle;rounded=0;orthogonalLoop=1;jettySize=auto;html=1;exitX=0.5;exitY=1;exitDx=0;exitDy=0;entryX=0.5;entryY=0;entryDx=0;entryDy=0;" edge="1" parent="1" source="vQfDU65cQJJvmLIyPzIB-26" target="vQfDU65cQJJvmLIyPzIB-28">
          <mxGeometry relative="1" as="geometry" />
        </mxCell>
        <mxCell id="vQfDU65cQJJvmLIyPzIB-26" value="getAuthInfo(AppSign)&lt;br&gt;获取AuthInfo" style="rounded=0;whiteSpace=wrap;html=1;" vertex="1" parent="1">
          <mxGeometry x="70" y="420" width="120" height="60" as="geometry" />
        </mxCell>
        <mxCell id="vQfDU65cQJJvmLIyPzIB-33" style="edgeStyle=orthogonalEdgeStyle;rounded=0;orthogonalLoop=1;jettySize=auto;html=1;exitX=0.5;exitY=1;exitDx=0;exitDy=0;entryX=0.5;entryY=0;entryDx=0;entryDy=0;" edge="1" parent="1" source="vQfDU65cQJJvmLIyPzIB-28" target="vQfDU65cQJJvmLIyPzIB-32">
          <mxGeometry relative="1" as="geometry" />
        </mxCell>
        <mxCell id="vQfDU65cQJJvmLIyPzIB-28" value="getLicense(AuthInfo,&lt;br&gt;callback)" style="rounded=0;whiteSpace=wrap;html=1;" vertex="1" parent="1">
          <mxGeometry x="70" y="510" width="120" height="60" as="geometry" />
        </mxCell>
        <mxCell id="vQfDU65cQJJvmLIyPzIB-37" style="edgeStyle=orthogonalEdgeStyle;rounded=0;orthogonalLoop=1;jettySize=auto;html=1;exitX=0.5;exitY=1;exitDx=0;exitDy=0;entryX=0.5;entryY=0;entryDx=0;entryDy=0;" edge="1" parent="1" source="vQfDU65cQJJvmLIyPzIB-32" target="vQfDU65cQJJvmLIyPzIB-36">
          <mxGeometry relative="1" as="geometry" />
        </mxCell>
        <mxCell id="vQfDU65cQJJvmLIyPzIB-32" value="callback回调收到鉴权证书。" style="rounded=0;whiteSpace=wrap;html=1;" vertex="1" parent="1">
          <mxGeometry x="70" y="590" width="120" height="60" as="geometry" />
        </mxCell>
        <mxCell id="vQfDU65cQJJvmLIyPzIB-39" style="edgeStyle=orthogonalEdgeStyle;rounded=0;orthogonalLoop=1;jettySize=auto;html=1;exitX=0.5;exitY=1;exitDx=0;exitDy=0;" edge="1" parent="1" source="vQfDU65cQJJvmLIyPzIB-36" target="vQfDU65cQJJvmLIyPzIB-38">
          <mxGeometry relative="1" as="geometry" />
        </mxCell>
        <mxCell id="vQfDU65cQJJvmLIyPzIB-41" style="edgeStyle=orthogonalEdgeStyle;rounded=0;orthogonalLoop=1;jettySize=auto;html=1;exitX=1;exitY=0.5;exitDx=0;exitDy=0;entryX=0;entryY=0.5;entryDx=0;entryDy=0;" edge="1" parent="1" source="vQfDU65cQJJvmLIyPzIB-36" target="vQfDU65cQJJvmLIyPzIB-40">
          <mxGeometry relative="1" as="geometry" />
        </mxCell>
        <mxCell id="vQfDU65cQJJvmLIyPzIB-36" value="ZegoServiceConfig&lt;br&gt;验证鉴权结果" style="rhombus;whiteSpace=wrap;html=1;" vertex="1" parent="1">
          <mxGeometry x="55" y="670" width="150" height="90" as="geometry" />
        </mxCell>
        <mxCell id="vQfDU65cQJJvmLIyPzIB-38" value="鉴权成功" style="rounded=0;whiteSpace=wrap;html=1;" vertex="1" parent="1">
          <mxGeometry x="70" y="790" width="120" height="60" as="geometry" />
        </mxCell>
        <mxCell id="vQfDU65cQJJvmLIyPzIB-43" style="edgeStyle=orthogonalEdgeStyle;rounded=0;orthogonalLoop=1;jettySize=auto;html=1;exitX=1;exitY=0.5;exitDx=0;exitDy=0;" edge="1" parent="1" source="vQfDU65cQJJvmLIyPzIB-40" target="vQfDU65cQJJvmLIyPzIB-42">
          <mxGeometry relative="1" as="geometry" />
        </mxCell>
        <mxCell id="vQfDU65cQJJvmLIyPzIB-40" value="鉴权失败" style="rounded=0;whiteSpace=wrap;html=1;" vertex="1" parent="1">
          <mxGeometry x="250" y="685" width="120" height="60" as="geometry" />
        </mxCell>
        <mxCell id="vQfDU65cQJJvmLIyPzIB-42" value="结束" style="rounded=1;whiteSpace=wrap;html=1;" vertex="1" parent="1">
          <mxGeometry x="430" y="685" width="120" height="60" as="geometry" />
        </mxCell>
      </root>
    </mxGraphModel>
  </diagram>
</mxfile>
